<svg id="Layer_1" data-name="Layer 1" xmlns="http://www.w3.org/2000/svg" viewBox="0 0 243.62 270.46"><defs><style>.cls-1{fill:#fff;stroke:#231f20;stroke-miterlimit:10;stroke-width:1.04px}</style></defs><path class="cls-1" d="M139 183.87l-66.75-37.73.31 34 66.23 38.27 86.52-48.81.07 19-86.63 49.4-83.14-48-1.28-139.65L33 62.77a32.93 32.93 0 00-16.31 28.58l.43 101.78a32.93 32.93 0 0016.58 28.45l88.36 50.52A32.93 32.93 0 00155 272l87.93-51.27a32.93 32.93 0 0016.34-28.59l-.34-80.67z" transform="translate(-16.17 -6.5)"/><path class="cls-1" d="M180.55 26.6l-26.66-15.24a32.93 32.93 0 00-32.89.14l-49.68 29 .47 51.85zM72.07 126.45l66.67 37.67 120.1-72.55v-1.24a32.92 32.92 0 00-16.25-28.24l-104.68 63.23-17.83-9.61 105.45-63.39-28-16-125.59 75.81z" transform="translate(-16.17 -6.5)"/></svg>